<svg width="15.177612" height="13.872925" viewBox="0 0 15.1776 13.8729" fill="none" xmlns="http://www.w3.org/2000/svg" xmlns:xlink="http://www.w3.org/1999/xlink">
	<desc>
			Created with Pixso.
	</desc>
	<defs/>
	<path id="Vector 14" d="M7.69 13.37C13.57 9.87 16.64 4.58 13.28 2.14C11.08 0.53 8.63 1.81 7.69 2.62L7.67 2.62L7.67 2.62L7.65 2.62C6.72 1.81 4.26 0.53 2.06 2.14C-1.3 4.58 1.77 9.87 7.65 13.37L7.67 13.37L7.67 13.37L7.69 13.37Z" fill="#696969" fill-opacity="1.000000" fill-rule="nonzero"/>
	<path id="Vector 14" d="M7.67 2.62L7.69 2.62C8.63 1.81 11.08 0.53 13.28 2.14C16.64 4.58 13.57 9.87 7.69 13.37L7.67 13.37M7.67 2.62L7.65 2.62C6.72 1.81 4.26 0.53 2.06 2.14C-1.3 4.58 1.77 9.87 7.65 13.37L7.67 13.37" stroke="#FFFFFF" stroke-opacity="1.000000" stroke-width="1.000000"/>
	<path id="Vector 15" d="M0.33 0.37L14.33 12.87" stroke="#FFFFFF" stroke-opacity="1.000000" stroke-width="1.000000"/>
</svg>
