<svg width="15.001221" height="13.000366" viewBox="0 0 15.0012 13.0004" fill="none" xmlns="http://www.w3.org/2000/svg" xmlns:xlink="http://www.w3.org/1999/xlink">
	<desc>
			Created with Pixso.
	</desc>
	<defs/>
	<path id="Vector 15" d="M7.52 12.5C13.4 9 16.46 3.7 13.11 1.26C10.91 -0.34 8.45 0.94 7.52 1.75L7.5 1.75L7.5 1.75L7.47 1.75C6.54 0.94 4.08 -0.34 1.88 1.26C-1.47 3.7 1.59 9 7.47 12.5L7.5 12.5L7.5 12.5L7.52 12.5Z" fill="#B672FF" fill-opacity="1.000000" fill-rule="nonzero"/>
	<path id="Vector 15" d="M7.5 1.75L7.52 1.75C8.45 0.94 10.91 -0.34 13.11 1.26C16.46 3.7 13.4 9 7.52 12.5L7.5 12.5M7.5 1.75L7.47 1.75C6.54 0.94 4.08 -0.34 1.88 1.26C-1.47 3.7 1.59 9 7.47 12.5L7.5 12.5" stroke="#B672FF" stroke-opacity="1.000000" stroke-width="1.000000"/>
</svg>
