<svg width="19.000000" height="17.731934" viewBox="0 0 19 17.7319" fill="none" xmlns="http://www.w3.org/2000/svg" xmlns:xlink="http://www.w3.org/1999/xlink">
	<desc>
			Created with Pixso.
	</desc>
	<defs/>
	<path id="Ellipse 3" d="M5.53 3.44Q5.4 3.47 5.28 3.5Q4.81 3.6 4.35 3.79Q3.89 3.99 3.48 4.26Q3.01 4.57 2.61 4.97Q2.2 5.38 1.89 5.85Q1.62 6.26 1.43 6.72Q1.24 7.17 1.13 7.64Q1 8.24 1 8.86Q1 9.49 1.13 10.08Q1.24 10.55 1.43 11Q1.62 11.46 1.89 11.87Q2.2 12.34 2.61 12.75Q3.01 13.16 3.48 13.46Q3.89 13.73 4.35 13.93Q4.81 14.12 5.28 14.23Q5.87 14.36 6.5 14.36L6.5 15.36Q5.77 15.36 5.08 15.21Q4.51 15.08 3.96 14.85Q3.41 14.62 2.92 14.29Q2.37 13.93 1.9 13.46Q1.42 12.98 1.06 12.43Q0.74 11.94 0.51 11.39Q0.28 10.85 0.15 10.28Q0 9.59 0 8.86Q0 8.13 0.15 7.44Q0.28 6.88 0.51 6.33Q0.74 5.78 1.06 5.29Q1.42 4.74 1.9 4.26Q2.37 3.79 2.92 3.43Q3.41 3.1 3.96 2.87Q4.51 2.64 5.08 2.52Q5.3 2.46 5.53 2.43L5.53 0L10.5 2.86L5.53 5.73L5.53 3.44Z" fill="#FFFFFF" fill-opacity="1.000000" fill-rule="evenodd"/>
	<path id="Ellipse 4" d="M13.46 14.28Q13.59 14.26 13.71 14.23Q14.18 14.12 14.64 13.93Q15.1 13.73 15.51 13.46Q15.98 13.16 16.38 12.75Q16.79 12.34 17.1 11.87Q17.37 11.46 17.56 11Q17.75 10.55 17.86 10.08Q18 9.49 18 8.86Q18 8.24 17.86 7.64Q17.75 7.17 17.56 6.72Q17.37 6.26 17.1 5.85Q16.79 5.38 16.38 4.97Q15.98 4.57 15.51 4.26Q15.1 3.99 14.64 3.79Q14.18 3.6 13.71 3.5Q13.12 3.36 12.5 3.36L12.5 2.36Q13.22 2.36 13.91 2.52Q14.48 2.64 15.03 2.87Q15.58 3.1 16.07 3.43Q16.62 3.79 17.09 4.26Q17.57 4.74 17.93 5.29Q18.25 5.78 18.48 6.33Q18.71 6.88 18.84 7.44Q19 8.13 19 8.86Q19 9.59 18.84 10.28Q18.71 10.85 18.48 11.39Q18.25 11.94 17.93 12.43Q17.57 12.98 17.09 13.46Q16.62 13.93 16.07 14.29Q15.58 14.62 15.03 14.85Q14.48 15.08 13.91 15.21Q13.69 15.26 13.46 15.29L13.46 17.73L8.5 14.86L13.46 12L13.46 14.28Z" fill="#FFFFFF" fill-opacity="1.000000" fill-rule="evenodd"/>
</svg>
