<svg width="20.000000" height="17.731934" viewBox="0 0 20 17.7319" fill="none" xmlns="http://www.w3.org/2000/svg" xmlns:xlink="http://www.w3.org/1999/xlink">
	<desc>
			Created with Pixso.
	</desc>
	<defs/>
	<path id="Vector 8" d="M2.29 2.36L0 2.36L0 3.36L2.29 3.36Q2.63 3.36 2.97 3.41Q3.27 3.46 3.56 3.55Q3.86 3.63 4.14 3.76Q4.44 3.89 4.72 4.07Q5 4.25 5.24 4.47Q5.47 4.67 5.68 4.9Q5.88 5.13 6.04 5.38Q6.23 5.67 6.38 5.99L9.2 12.15Q9.38 12.53 9.61 12.88Q9.81 13.19 10.06 13.48Q10.31 13.76 10.59 14.01Q10.89 14.27 11.23 14.49Q11.57 14.71 11.93 14.87Q12.28 15.03 12.64 15.13Q13 15.24 13.37 15.3Q13.78 15.36 14.2 15.36L15.03 15.36L15.03 17.73L20 14.86L15.03 12L15.03 14.36L14.2 14.36Q13.86 14.36 13.52 14.31Q13.22 14.26 12.93 14.18Q12.63 14.09 12.35 13.96Q12.05 13.83 11.77 13.65Q11.49 13.47 11.25 13.25Q11.02 13.05 10.81 12.82Q10.61 12.59 10.45 12.34Q10.26 12.05 10.11 11.74L7.29 5.57Q7.11 5.19 6.88 4.84Q6.68 4.53 6.43 4.24Q6.18 3.96 5.9 3.71Q5.6 3.45 5.26 3.23Q4.92 3.01 4.56 2.85Q4.21 2.7 3.85 2.59Q3.49 2.48 3.12 2.42Q2.71 2.36 2.29 2.36Z" fill="#FFFFFF" fill-opacity="1.000000" fill-rule="evenodd"/>
	<path id="Vector 9" d="M2.29 15.36L0 15.36L0 14.36L2.29 14.36Q2.63 14.36 2.97 14.31Q3.27 14.26 3.56 14.18Q3.86 14.09 4.14 13.96Q4.44 13.83 4.72 13.65Q5 13.47 5.24 13.25Q5.47 13.05 5.68 12.82Q5.88 12.59 6.04 12.34Q6.23 12.05 6.38 11.74L9.2 5.57Q9.38 5.19 9.61 4.84Q9.81 4.53 10.06 4.24Q10.31 3.96 10.59 3.71Q10.89 3.45 11.23 3.23Q11.57 3.01 11.93 2.85Q12.28 2.7 12.64 2.59Q13 2.48 13.37 2.42Q13.78 2.36 14.2 2.36L15.03 2.36L15.03 0L20 2.86L15.03 5.73L15.03 3.36L14.2 3.36Q13.86 3.36 13.52 3.41Q13.22 3.46 12.93 3.55Q12.63 3.63 12.35 3.76Q12.05 3.89 11.77 4.07Q11.49 4.25 11.25 4.47Q11.02 4.67 10.81 4.9Q10.61 5.13 10.45 5.38Q10.26 5.67 10.11 5.99L7.29 12.15Q7.11 12.53 6.88 12.88Q6.68 13.19 6.43 13.48Q6.18 13.76 5.9 14.01Q5.6 14.27 5.26 14.49Q4.92 14.71 4.56 14.87Q4.21 15.03 3.85 15.13Q3.49 15.24 3.12 15.3Q2.71 15.36 2.29 15.36Z" fill="#FFFFFF" fill-opacity="1.000000" fill-rule="evenodd"/>
</svg>
