<svg>
    <symbol id="icon-search"  viewBox="0 0 17 18"  xmlns="http://www.w3.org/2000/svg">
        <path d="M11.9276 12.7748L15.37 17.0644" stroke="white" stroke-linecap="round"/>
        <circle cx="8.48533" cy="8.48526" r="5.5" transform="rotate(-38.7469 8.48533 8.48526)" stroke="white"/>
    </symbol>
    <symbol id="icon-watch"  viewBox="0 0 12 12"  xmlns="http://www.w3.org/2000/svg">
        <circle cx="6" cy="6" r="5.5" stroke="#696969"/>
        <path d="M4 6H6.5V2.5" stroke="#696969"/>
    </symbol>
    <symbol id="icon-like"  viewBox="0 0 16 14"  xmlns="http://www.w3.org/2000/svg">
        <path d="M8.34372 2.25572H8.36529C9.29718 1.44175 11.7563 0.165765 13.9565 1.76734C17.3111 4.20921 14.2458 9.5 8.36529 13H8.34372M8.34378 2.25572H8.32221C7.39032 1.44175 4.93121 0.165765 2.73102 1.76734C-0.623552 4.20921 2.44172 9.5 8.32221 13H8.34378"/>
    </symbol>
    
    <symbol id="icon-note"  viewBox="0 0 20 19"  xmlns="http://www.w3.org/2000/svg">
        <path d="M8 16V1.9697L19 1V13" stroke="#4E4E4E"/>
        <ellipse cx="4.5" cy="16" rx="3.5" ry="2" stroke="#4E4E4E"/>
        <ellipse cx="15.5" cy="13" rx="3.5" ry="2" stroke="#4E4E4E"/>
    </symbol>
    <symbol id="icon-button" viewBox="0 0 16 16" fill="none" xmlns="http://www.w3.org/2000/svg" xmlns:xlink="http://www.w3.org/1999/xlink">
        <path id="Rectangle 3776" d="M8 0C12.41 0 16 3.58 16 8C16 12.41 12.41 16 8 16C3.58 16 0 12.41 0 8C0 3.58 3.58 0 8 0Z" fill="#B672FF" fill-opacity="1.000000" fill-rule="nonzero"/>
    </symbol>

    <symbol id="icon-volume" fill="none" viewBox="0 0 14 18" xmlns="http://www.w3.org/2000/svg">
        <mask id="path-1-inside-1_2985_507" fill="white">
        <path fill-rule="evenodd" clip-rule="evenodd" d="M8 0L3 5H0V13H3L8 18V0Z"/>
        </mask>
        <path d="M3 5V6H3.41421L3.70711 5.70711L3 5ZM8 0H9V-2.41421L7.29289 -0.707107L8 0ZM0 5V4H-1V5H0ZM0 13H-1V14H0V13ZM3 13L3.70711 12.2929L3.41421 12H3V13ZM8 18L7.29289 18.7071L9 20.4142V18H8ZM3.70711 5.70711L8.70711 0.707107L7.29289 -0.707107L2.29289 4.29289L3.70711 5.70711ZM0 6H3V4H0V6ZM1 13V5H-1V13H1ZM3 12H0V14H3V12ZM8.70711 17.2929L3.70711 12.2929L2.29289 13.7071L7.29289 18.7071L8.70711 17.2929ZM7 0V18H9V0H7Z" fill="white" mask="url(#path-1-inside-1_2985_507)"/>
        <path d="M11 13C12.1046 13 13 11.2091 13 9C13 6.79086 12.1046 5 11 5" stroke="white"/>
    </symbol>
    <symbol id="icon-dislike"  viewBox="0 0 16 15"  xmlns="http://www.w3.org/2000/svg">
        <path d="M8.34372 3.25572H8.36529C9.29718 2.44175 11.7563 1.16576 13.9565 2.76734C17.3111 5.20921 14.2458 10.5 8.36529 14H8.34372M8.34378 3.25572H8.32221C7.39032 2.44175 4.93121 1.16576 2.73102 2.76734C-0.623552 5.20921 2.44172 10.5 8.32221 14H8.34378" />
        <path d="M1 1L15 13.5" />
    </symbol>
    <symbol id="icon-prev" viewBox="0 0 16 14"  xmlns="http://www.w3.org/2000/svg">
        <path d="M1 2V12.5" stroke="white"/>
        <path d="M3 7L12.75 0.937823L12.75 13.0622L3 7Z" fill="#D9D9D9"/>
    </symbol>
    <symbol id="icon-play" viewBox="0 0 15 20"  xmlns="http://www.w3.org/2000/svg">
        <path d="M15 10L-1.01012e-06 0.47372L-1.84293e-06 19.5263L15 10Z" fill="#D9D9D9"/>
    </symbol>
    <symbol id="icon-pause" viewBox="0 0 15 19" fill="none" xmlns="http://www.w3.org/2000/svg" xmlns:xlink="http://www.w3.org/1999/xlink">
	    <rect id="Rectangle 3769" width="5.000000" height="19.000000" fill="#D9D9D9" fill-opacity="1.000000"/>
	    <rect id="Rectangle 3770" x="10.000000" width="5.000000" height="19.000000" fill="#D9D9D9" fill-opacity="1.000000"/>
    </symbol>

    <symbol id="icon-next" viewBox="0 0 16 14"  xmlns="http://www.w3.org/2000/svg">
        <path d="M15 2V12.5" stroke="white"/>
        <path d="M13 7L3.25 0.937823L3.25 13.0622L13 7Z" fill="#D9D9D9"/>
    </symbol>
 
    <symbol id="icon-repeat" viewBox="0 0 19 17" fill="none" xmlns="http://www.w3.org/2000/svg" xmlns:xlink="http://www.w3.org/1999/xlink">
        <path id="Ellipse 3" d="M5.03 2.58Q4.9 2.6 4.78 2.63Q4.31 2.74 3.85 2.93Q3.39 3.12 2.98 3.39Q2.51 3.7 2.11 4.11Q1.7 4.51 1.39 4.98Q1.12 5.39 0.93 5.85Q0.74 6.31 0.63 6.78Q0.5 7.37 0.5 8Q0.5 8.62 0.63 9.21Q0.74 9.68 0.93 10.14Q1.12 10.6 1.39 11.01Q1.7 11.48 2.11 11.88Q2.51 12.29 2.98 12.6Q3.39 12.87 3.85 13.06Q4.31 13.25 4.78 13.36Q5.37 13.5 6 13.5L6 14.5Q5.27 14.5 4.58 14.34Q4.01 14.21 3.46 13.98Q2.91 13.75 2.42 13.43Q1.87 13.07 1.4 12.59Q0.92 12.12 0.56 11.57Q0.24 11.08 0.01 10.53Q-0.22 9.98 -0.35 9.41Q-0.5 8.72 -0.5 8Q-0.5 7.27 -0.35 6.58Q-0.22 6.01 0.01 5.46Q0.24 4.91 0.56 4.42Q0.92 3.87 1.4 3.4Q1.87 2.92 2.42 2.56Q2.91 2.24 3.46 2.01Q4.01 1.78 4.58 1.65Q4.8 1.6 5.03 1.57L5.03 -0.87L10 2L5.03 4.86L5.03 2.58Z" fill="#FFFFFF" fill-opacity="1.000000" fill-rule="evenodd"/>
        <path id="Ellipse 4" d="M12.96 13.41Q13.09 13.39 13.21 13.36Q13.68 13.25 14.14 13.06Q14.6 12.87 15.01 12.6Q15.48 12.29 15.88 11.88Q16.29 11.48 16.6 11.01Q16.87 10.6 17.06 10.14Q17.25 9.68 17.36 9.21Q17.5 8.62 17.5 8Q17.5 7.37 17.36 6.78Q17.25 6.31 17.06 5.85Q16.87 5.39 16.6 4.98Q16.29 4.51 15.88 4.11Q15.48 3.7 15.01 3.39Q14.6 3.12 14.14 2.93Q13.68 2.74 13.21 2.63Q12.62 2.5 12 2.5L12 1.5Q12.72 1.5 13.41 1.65Q13.98 1.78 14.53 2.01Q15.08 2.24 15.57 2.56Q16.12 2.92 16.59 3.4Q17.07 3.87 17.43 4.42Q17.75 4.91 17.98 5.46Q18.21 6.01 18.34 6.58Q18.5 7.27 18.5 8Q18.5 8.72 18.34 9.41Q18.21 9.98 17.98 10.53Q17.75 11.08 17.43 11.57Q17.07 12.12 16.59 12.59Q16.12 13.07 15.57 13.43Q15.08 13.75 14.53 13.98Q13.98 14.21 13.41 14.34Q13.19 14.39 12.96 14.42L12.96 16.86L8 14L12.96 11.13L12.96 13.41Z" fill="#FFFFFF" fill-opacity="1.000000" fill-rule="evenodd"/>
    </symbol>
    <symbol id="icon-repeat-toggled"  viewBox="0 0 20 18"  xmlns="http://www.w3.org/2000/svg">
        <path d="M10 3L5 0.113249V5.88675L10 3ZM7 14.5C3.96243 14.5 1.5 12.0376 1.5 9H0.5C0.5 12.5899 3.41015 15.5 7 15.5V14.5ZM1.5 9C1.5 5.96243 3.96243 3.5 7 3.5V2.5C3.41015 2.5 0.5 5.41015 0.5 9H1.5Z" fill="#696969"/>
        <path d="M10 15L15 17.8868V12.1132L10 15ZM13 3.5C16.0376 3.5 18.5 5.96243 18.5 9H19.5C19.5 5.41015 16.5899 2.5 13 2.5V3.5ZM18.5 9C18.5 12.0376 16.0376 14.5 13 14.5V15.5C16.5899 15.5 19.5 12.5899 19.5 9H18.5Z" fill="#696969"/>
    </symbol>

     <symbol id="icon-shuffle" viewBox="0 0 19 18" fill="none" xmlns="http://www.w3.org/2000/svg">
        <path d="M19 15L14 12.1132V17.8868L19 15ZM9.66317 12.0833L9.20863 12.2916L9.66317 12.0833ZM6.83683 5.91673L6.3823 6.12505L6.83683 5.91673ZM0 3.5H2.29151V2.5H0V3.5ZM6.3823 6.12505L9.20863 12.2916L10.1177 11.8749L7.29137 5.7084L6.3823 6.12505ZM14.2085 15.5H14.5V14.5H14.2085V15.5ZM9.20863 12.2916C10.1047 14.2466 12.0579 15.5 14.2085 15.5V14.5C12.449 14.5 10.8508 13.4745 10.1177 11.8749L9.20863 12.2916ZM2.29151 3.5C4.05105 3.5 5.64918 4.52552 6.3823 6.12505L7.29137 5.7084C6.39533 3.75341 4.44205 2.5 2.29151 2.5V3.5Z" fill="#696969"/>
        <path d="M19 3L14 5.88675V0.113249L19 3ZM9.66317 5.91673L9.20863 5.7084L9.66317 5.91673ZM6.83683 12.0833L6.3823 11.8749L6.83683 12.0833ZM0 14.5H2.29151V15.5H0V14.5ZM6.3823 11.8749L9.20863 5.7084L10.1177 6.12505L7.29137 12.2916L6.3823 11.8749ZM14.2085 2.5H14.5V3.5H14.2085V2.5ZM9.20863 5.7084C10.1047 3.75341 12.0579 2.5 14.2085 2.5V3.5C12.449 3.5 10.8508 4.52552 10.1177 6.12505L9.20863 5.7084ZM2.29151 14.5C4.05105 14.5 5.64918 13.4745 6.3823 11.8749L7.29137 12.2916C6.39533 14.2466 4.44205 15.5 2.29151 15.5V14.5Z" fill="#696969"/>
    </symbol>
    <symbol id="icon-shuffle-toggled" viewBox="0 0 19 18" fill="none" xmlns="http://www.w3.org/2000/svg">
        <path d="M19 15L14 12.1132V17.8868L19 15ZM9.66317 12.0833L9.20863 12.2916L9.66317 12.0833ZM6.83683 5.91673L6.3823 6.12505L6.83683 5.91673ZM0 3.5H2.29151V2.5H0V3.5ZM6.3823 6.12505L9.20863 12.2916L10.1177 11.8749L7.29137 5.7084L6.3823 6.12505ZM14.2085 15.5H14.5V14.5H14.2085V15.5ZM9.20863 12.2916C10.1047 14.2466 12.0579 15.5 14.2085 15.5V14.5C12.449 14.5 10.8508 13.4745 10.1177 11.8749L9.20863 12.2916ZM2.29151 3.5C4.05105 3.5 5.64918 4.52552 6.3823 6.12505L7.29137 5.7084C6.39533 3.75341 4.44205 2.5 2.29151 2.5V3.5Z" fill="white"/>
        <path d="M19 3L14 5.88675V0.113249L19 3ZM9.66317 5.91673L9.20863 5.7084L9.66317 5.91673ZM6.83683 12.0833L6.3823 11.8749L6.83683 12.0833ZM0 14.5H2.29151V15.5H0V14.5ZM6.3823 11.8749L9.20863 5.7084L10.1177 6.12505L7.29137 12.2916L6.3823 11.8749ZM14.2085 2.5H14.5V3.5H14.2085V2.5ZM9.20863 5.7084C10.1047 3.75341 12.0579 2.5 14.2085 2.5V3.5C12.449 3.5 10.8508 4.52552 10.1177 6.12505L9.20863 5.7084ZM2.29151 14.5C4.05105 14.5 5.64918 13.4745 6.3823 11.8749L7.29137 12.2916C6.39533 14.2466 4.44205 15.5 2.29151 15.5V14.5Z" fill="white"/>
    </symbol>

    <symbol id='logout' width="40" height="40" viewBox="0 0 40 40" fill="none" xmlns="http://www.w3.org/2000/svg">
        <path d="M25.6711 16.046V14.7419C25.6711 13.2276 24.4435 12 22.9292 12H16.7419C15.2276 12 14 13.2276 14 14.7419V26.0645C14 27.5788 15.2276 28.8065 16.7419 28.8065H22.9292C24.4435 28.8065 25.6711 27.5788 25.6711 26.0645V24.6048M18.3572 20.3254H33.2963M33.2963 20.3254L30.1062 23.5155M33.2963 20.3254L30.1062 17.1353" stroke="white" stroke-linecap="round" stroke-linejoin="round"/>
        <circle cx="20" cy="20" r="19.5" stroke="white"/>
    </symbol> 
    <symbol ></symbol>
</svg>